<svg width="13" height="12" viewBox="0 0 13 12" fill="none" xmlns="http://www.w3.org/2000/svg">
<path d="M4.50009 1.00391V2.50391" stroke="white" stroke-width="0.8" stroke-miterlimit="10" stroke-linecap="round" stroke-linejoin="round"/>
<path d="M8.49991 1.00391V2.50391" stroke="white" stroke-width="0.8" stroke-miterlimit="10" stroke-linecap="round" stroke-linejoin="round"/>
<path d="M11 4.25391V6.81891C10.555 6.46391 9.99 6.25391 9.375 6.25391C8.76 6.25391 8.185 6.46889 7.735 6.83389C7.13 7.30889 6.75 8.05391 6.75 8.87891C6.75 9.36891 6.89 9.83891 7.13 10.2289C7.315 10.5339 7.555 10.7989 7.84 11.0039H4.5C2.75 11.0039 2 10.0039 2 8.50391V4.25391C2 2.75391 2.75 1.75391 4.5 1.75391H8.5C10.25 1.75391 11 2.75391 11 4.25391Z" stroke="white" stroke-width="0.8" stroke-miterlimit="10" stroke-linecap="round" stroke-linejoin="round"/>
<path d="M3.99991 5.50391H6.99991" stroke="white" stroke-width="0.8" stroke-miterlimit="10" stroke-linecap="round" stroke-linejoin="round"/>
<path d="M3.99991 7.99609H5.30991" stroke="white" stroke-width="0.8" stroke-miterlimit="10" stroke-linecap="round" stroke-linejoin="round"/>
<path d="M12.0001 8.87891C12.0001 9.36891 11.8601 9.83891 11.6201 10.2289C11.4801 10.4689 11.3051 10.6789 11.1001 10.8489C10.6401 11.2589 10.0401 11.5039 9.37509 11.5039C8.80009 11.5039 8.27009 11.3189 7.84009 11.0039C7.55509 10.7989 7.3151 10.5339 7.1301 10.2289C6.8901 9.83891 6.75009 9.36891 6.75009 8.87891C6.75009 8.05391 7.13009 7.30889 7.73509 6.83389C8.18509 6.46889 8.76009 6.25391 9.37509 6.25391C9.99009 6.25391 10.5551 6.46391 11.0001 6.81891C11.6101 7.29891 12.0001 8.04391 12.0001 8.87891Z" stroke="white" stroke-width="0.8" stroke-miterlimit="10" stroke-linecap="round" stroke-linejoin="round"/>
<path d="M9.37491 10.1211C9.37491 9.43109 9.93491 8.87109 10.6249 8.87109C9.93491 8.87109 9.37491 8.31109 9.37491 7.62109C9.37491 8.31109 8.81491 8.87109 8.12491 8.87109C8.81491 8.87109 9.37491 9.43109 9.37491 10.1211Z" stroke="white" stroke-width="0.8" stroke-linecap="round" stroke-linejoin="round"/>
</svg>
